<svg width="16" height="16" fill="none" xmlns="http://www.w3.org/2000/svg"><path d="M8 1a7 7 0 10.001 14.001A7 7 0 008 1zm0 12.813A5.813 5.813 0 018 2.187a5.813 5.813 0 010 11.626zm.088-8.324c.828 0 1.39.528 1.453 1.303a.124.124 0 00.125.116h.886c.04 0 .073-.033.073-.074 0-1.354-1.069-2.303-2.542-2.303-1.717 0-2.708 1.16-2.708 3.075v.817c0 1.902.99 3.046 2.708 3.046 1.469 0 2.542-.919 2.542-2.21a.073.073 0 00-.073-.073h-.888a.126.126 0 00-.125.114c-.066.72-.627 1.216-1.453 1.216-1.02 0-1.595-.749-1.595-2.088v-.822c.001-1.36.578-2.117 1.597-2.117z" fill="#78847D"/></svg>