<svg width="40" height="40" fill="none" xmlns="http://www.w3.org/2000/svg"><path d="M20 23.5c-1.875 0-3.5-1.5-3.5-3.5 0-1.875 1.5-3.5 3.5-3.5 1.875 0 3.5 1.5 3.5 3.5 0 1.875-1.625 3.5-3.5 3.5z" fill="#A2BDAA"/><path fill-rule="evenodd" clip-rule="evenodd" d="M24.25 11.5h-8.5c-1 .125-1.5.25-1.875.375-.5.125-.875.375-1.25.75-.297.297-.437.594-.606.952-.045.095-.092.194-.144.298l-.066.184c-.13.358-.309.846-.309 1.691v8.5c.125 1 .25 1.5.375 1.875.125.5.375.875.75 1.25.297.297.594.437.952.606.095.045.194.092.298.144l.184.066c.358.13.846.309 1.691.309h8.5c1-.125 1.5-.25 1.875-.375.5-.125.875-.375 1.25-.75.297-.297.437-.593.606-.952.045-.095.092-.194.144-.298l.066-.184c.13-.358.309-.846.309-1.691v-8.5c-.125-1-.25-1.5-.375-1.875-.125-.5-.375-.875-.75-1.25-.297-.297-.593-.437-.952-.606a14.32 14.32 0 01-.298-.144l-.184-.066a4.411 4.411 0 00-1.691-.309zM20 14.625c-3 0-5.375 2.375-5.375 5.375S17 25.375 20 25.375 25.375 23 25.375 20 23 14.625 20 14.625zm6.75-.125a1.25 1.25 0 11-2.5 0 1.25 1.25 0 012.5 0z" fill="#A2BDAA"/><path fill-rule="evenodd" clip-rule="evenodd" d="M0 20C0 8.954 8.954 0 20 0s20 8.954 20 20-8.954 20-20 20S0 31.046 0 20zM15.75 9.625h8.5c1.125.125 1.875.25 2.5.5.75.375 1.25.625 1.875 1.25s1 1.25 1.25 1.875.5 1.375.5 2.5v8.5c-.125 1.125-.25 1.875-.5 2.5-.375.75-.625 1.25-1.25 1.875s-1.25 1-1.875 1.25-1.375.5-2.5.5h-8.5c-1.125-.125-1.875-.25-2.5-.5-.75-.375-1.25-.625-1.875-1.25s-1-1.25-1.25-1.875-.5-1.375-.5-2.5v-8.5c.125-1.125.25-1.875.5-2.5.375-.75.625-1.25 1.25-1.875s1.25-1 1.875-1.25 1.375-.5 2.5-.5z" fill="#A2BDAA"/></svg>