<svg class="menu-btn" xmlns="http://www.w3.org/2000/svg" width="60" height="60"><path d="M54.375 30c0 2.07-1.68 3.75-3.75 3.75h-30a3.751 3.751 0 010-7.5h30c2.07 0 3.75 1.68 3.75 3.75zm0 0" fill="#fff"/><path d="M54.375 11.25c0 2.07-1.68 3.75-3.75 3.75h-30a3.751 3.751 0 010-7.5h30c2.07 0 3.75 1.68 3.75 3.75zm0 37.5c0 2.07-1.68 3.75-3.75 3.75h-30a3.751 3.751 0 010-7.5h30c2.07 0 3.75 1.68 3.75 3.75zm-48.75-37.5A3.756 3.756 0 009.375 15a3.756 3.756 0 003.75-3.75 3.756 3.756 0 00-3.75-3.75 3.756 3.756 0 00-3.75 3.75zm0 18.75a3.756 3.756 0 003.75 3.75 3.756 3.756 0 003.75-3.75 3.756 3.756 0 00-3.75-3.75A3.756 3.756 0 005.625 30zm0 18.75a3.756 3.756 0 003.75 3.75 3.756 3.756 0 003.75-3.75A3.756 3.756 0 009.375 45a3.756 3.756 0 00-3.75 3.75zm0 0"/></svg>