<svg width="40" height="40" fill="none" xmlns="http://www.w3.org/2000/svg"><path fill-rule="evenodd" clip-rule="evenodd" d="M0 20C0 8.954 8.954 0 20 0s20 8.954 20 20-8.954 20-20 20S0 31.046 0 20zm27.625-5.625c.875-.125 1.625-.25 2.375-.625a5.776 5.776 0 01-2.125 2.125c.25 5.875-4 12.25-11.625 12.25-2.25 0-4.375-.75-6.25-1.875 2.125.25 4.375-.375 5.875-1.5C14 24.75 12.5 23.5 12 21.875c.625.125 1.25 0 1.875-.125-1.875-.5-3.25-2.25-3.25-4.125.625.25 1.25.5 1.875.5-1.75-1.25-2.375-3.625-1.25-5.5 2.125 2.5 5.125 4.125 8.5 4.25-.625-2.5 1.375-5 4-5 1.125 0 2.25.5 3 1.25 1-.25 1.875-.5 2.625-1-.25 1-.875 1.75-1.75 2.25z" fill="#A2BDAA"/></svg>