<svg width="117" height="36" fill="none" xmlns="http://www.w3.org/2000/svg"><path fill-rule="evenodd" clip-rule="evenodd" d="M72.581 27.526c-6.774 5.004-16.626 7.67-25.124 7.67-11.905 0-22.58-4.389-30.707-11.69-.616-.575-.083-1.354.697-.903 8.745 5.087 19.541 8.122 30.708 8.122 7.512 0 15.805-1.559 23.44-4.8 1.15-.45 2.094.78.986 1.6z" fill="#A2BDAA"/><path fill-rule="evenodd" clip-rule="evenodd" d="M75.414 24.285c-.862-1.108-5.748-.533-7.924-.246-.656.082-.78-.492-.164-.903 3.9-2.748 10.263-1.928 11.002-1.025.74.902-.205 7.302-3.859 10.337-.574.452-1.108.205-.862-.41.821-2.051 2.669-6.604 1.807-7.753zm-7.8-20.429V1.19c0-.41.287-.657.656-.657h11.906c.37 0 .698.287.698.657v2.256c0 .369-.329.861-.903 1.682l-6.158 8.778c2.299-.04 4.72.288 6.773 1.436.452.246.575.656.616 1.026v2.83c0 .41-.41.862-.862.616-3.654-1.928-8.539-2.134-12.562.04-.41.206-.862-.204-.862-.615v-2.707c0-.41 0-1.149.451-1.805L74.51 4.512h-6.198c-.37 0-.698-.287-.698-.656zM24.22 20.388h-3.613c-.328-.041-.615-.287-.656-.616V1.232c0-.37.328-.657.697-.657h3.367c.37 0 .616.287.657.616v2.42h.082C25.617 1.272 27.3.164 29.517.164c2.258 0 3.695 1.108 4.68 3.446.862-2.338 2.873-3.446 5.008-3.446 1.52 0 3.161.615 4.188 2.051 1.15 1.559.903 3.815.903 5.825v11.733c0 .369-.329.656-.698.656h-3.572c-.37-.041-.657-.328-.657-.656V9.927c0-.78.083-2.748-.082-3.487-.287-1.23-1.067-1.6-2.134-1.6-.862 0-1.807.575-2.176 1.518-.37.944-.329 2.503-.329 3.57v9.845c0 .369-.328.656-.698.656h-3.612c-.37-.041-.657-.328-.657-.656V9.927c0-2.05.328-5.127-2.217-5.127-2.586 0-2.504 2.953-2.504 5.127v9.846c-.041.328-.328.615-.739.615zM91.137.164c5.378 0 8.293 4.595 8.293 10.46 0 5.662-3.203 10.174-8.293 10.174-5.255 0-8.129-4.594-8.129-10.337C82.968 4.676 85.882.164 91.137.164zm0 3.815c-2.669 0-2.833 3.651-2.833 5.907 0 2.257-.04 7.097 2.792 7.097 2.791 0 2.956-3.897 2.956-6.276 0-1.56-.083-3.446-.534-4.923-.41-1.313-1.232-1.805-2.381-1.805zm15.23 16.409h-3.612c-.37-.041-.657-.328-.657-.657V1.15a.709.709 0 01.698-.616h3.366c.329 0 .575.246.657.534v2.83h.082c1.026-2.543 2.422-3.733 4.926-3.733 1.601 0 3.202.574 4.229 2.174.944 1.477.944 3.98.944 5.784v11.692c-.041.328-.328.574-.698.574h-3.613c-.328-.041-.615-.287-.656-.574V9.722c0-2.05.246-5.004-2.258-5.004-.862 0-1.683.574-2.094 1.476-.493 1.149-.575 2.256-.575 3.528v10.01a.751.751 0 01-.739.656zm-48.237-8.86c0 1.394.042 2.583-.656 3.855-.575 1.026-1.478 1.641-2.505 1.641-1.395 0-2.216-1.067-2.216-2.625 0-3.077 2.75-3.651 5.377-3.651v.78zm3.654 8.819a.743.743 0 01-.862.082c-1.19-.985-1.437-1.477-2.094-2.42-1.97 2.01-3.407 2.625-5.952 2.625-3.038 0-5.42-1.887-5.42-5.62 0-2.954 1.602-4.923 3.86-5.907 1.97-.862 4.72-1.026 6.814-1.272v-.451c0-.862.083-1.887-.451-2.625-.452-.657-1.273-.944-2.012-.944-1.395 0-2.627.697-2.914 2.174-.083.328-.288.657-.616.657l-3.49-.37c-.287-.082-.615-.287-.533-.738C48.934 1.272 52.753 0 56.2 0c1.765 0 4.064.451 5.46 1.805 1.765 1.64 1.601 3.856 1.601 6.235v5.62c0 1.682.698 2.42 1.355 3.364.246.328.287.738 0 .944-.78.615-2.094 1.764-2.833 2.379zm-51.07-8.82c0 1.395.042 2.585-.656 3.856-.575 1.026-1.478 1.641-2.504 1.641-1.396 0-2.217-1.067-2.217-2.625 0-3.077 2.75-3.651 5.378-3.651v.78zm3.613 8.82a.743.743 0 01-.862.082c-1.19-.985-1.437-1.477-2.093-2.42-1.971 2.01-3.408 2.625-5.953 2.625-3.038 0-5.419-1.887-5.419-5.62 0-2.954 1.601-4.923 3.859-5.907 1.97-.862 4.721-1.026 6.815-1.272v-.451c0-.862.082-1.887-.452-2.625-.451-.657-1.273-.944-2.011-.944-1.396 0-2.628.697-2.915 2.174-.082.328-.288.657-.616.657l-3.49-.37C.904 6.194.576 5.99.658 5.538 1.477 1.272 5.296 0 8.744 0c1.765 0 4.064.451 5.46 1.805 1.765 1.64 1.601 3.856 1.601 6.235v5.62c0 1.682.698 2.42 1.355 3.364.246.328.287.738 0 .944-.78.615-2.094 1.764-2.833 2.379z" fill="#A2BDAA"/></svg>