<svg width="150" height="30" fill="none" xmlns="http://www.w3.org/2000/svg"><path d="M77.223 14.408c-1.238 0-2.131.406-3.036.82v9.355c.867.083 1.364.083 2.187.083 2.972 0 3.38-1.36 3.38-3.26v-4.468c0-1.403-.466-2.53-2.53-2.53zm-19.743-.51c-2.063 0-2.533 1.131-2.533 2.533v.787h5.063v-.787c0-1.402-.47-2.533-2.53-2.533zm-38.247 9.738c0 1.108.524 1.684 1.679 1.684 1.24 0 1.973-.404 2.878-.819v-2.219h-2.71c-1.283 0-1.847.239-1.847 1.354zm77.196-9.228c-2.066 0-2.782 1.127-2.782 2.53v5.119c0 1.406.716 2.536 2.782 2.536 2.06 0 2.782-1.13 2.782-2.536v-5.12c-.001-1.402-.722-2.529-2.782-2.529zM9.108 29.376H3.035v-14.69H0v-5.06h3.035v-3.04C3.035 2.455 4.748 0 9.616 0h4.053v5.063h-2.533c-1.895 0-2.02.708-2.02 2.028l-.008 2.533h4.59l-.538 5.062H9.108v14.69zm20.756.038h-5.062l-.218-1.28a11.61 11.61 0 01-5.735 1.487c-3.712 0-5.688-2.478-5.688-5.905 0-4.043 2.306-5.486 6.43-5.486h4.199v-.874c0-2.064-.237-2.67-3.413-2.67h-5.193l.507-5.061h5.676c6.97 0 8.497 2.2 8.497 7.772v12.017zm17.213-14.356c-3.15-.54-4.054-.659-5.57-.659-2.722 0-3.545.6-3.545 2.91v4.37c0 2.31.823 2.913 3.545 2.913 1.516 0 2.42-.12 5.57-.662v4.937c-2.759.618-4.556.78-6.075.78-6.52 0-9.113-3.426-9.113-8.375v-3.546c0-4.954 2.592-8.387 9.113-8.387 1.519 0 3.316.163 6.075.784v4.935zm19.006 6.213H54.946v.408c0 2.31.823 2.913 3.545 2.913 2.446 0 3.94-.12 7.084-.662v4.937c-3.033.618-4.613.78-7.588.78-6.52 0-9.114-3.426-9.114-8.375v-4.055c0-4.33 1.924-7.878 8.606-7.878 6.683 0 8.604 3.506 8.604 7.878v4.055zm19.743.094c0 4.784-1.368 8.274-9.658 8.274-2.994 0-4.75-.263-8.053-.771V1.52L74.186.509v9.566c1.312-.487 3.01-.735 4.556-.735 6.072 0 7.083 2.72 7.083 7.091v4.934h.001zm19.462.104c0 4.127-1.705 8.13-8.84 8.13-7.137 0-8.874-4.003-8.874-8.13v-3.985c0-4.129 1.737-8.132 8.875-8.132 7.134 0 8.839 4.003 8.839 8.132v3.985zm19.449 0c0 4.127-1.707 8.13-8.84 8.13-7.138 0-8.875-4.003-8.875-8.13v-3.985c0-4.129 1.737-8.132 8.875-8.132 7.133 0 8.84 4.003 8.84 8.132v3.985zm19.96 7.907h-6.581l-5.566-9.285v9.285h-6.074V1.52L132.55.508V18.44l5.566-8.815h6.581l-6.077 9.62 6.077 10.13zm-28.821-14.968c-2.062 0-2.778 1.127-2.778 2.53v5.119c0 1.406.716 2.536 2.778 2.536 2.06 0 2.789-1.13 2.789-2.536v-5.12c0-1.402-.729-2.529-2.789-2.529zm32.287 11.503c1.023 0 1.837.833 1.837 1.874 0 1.057-.815 1.88-1.845 1.88a1.857 1.857 0 01-1.855-1.88c0-1.04.831-1.874 1.855-1.874h.008zm-.008.292c-.824 0-1.498.708-1.498 1.582 0 .89.675 1.59 1.506 1.59.832.008 1.496-.7 1.496-1.582 0-.881-.664-1.59-1.496-1.59h-.008zm-.349 2.673h-.333v-2.091c.175-.025.341-.049.591-.049.317 0 .524.067.651.158.123.092.189.233.189.432 0 .276-.182.442-.406.509v.016c.182.034.306.199.349.506.048.326.099.45.132.518h-.349c-.05-.068-.1-.259-.142-.534-.049-.266-.183-.366-.45-.366h-.231v.9h-.001zm0-1.158h.242c.273 0 .506-.1.506-.359 0-.183-.132-.366-.506-.366a1.74 1.74 0 00-.242.016v.71z" fill="#A2BDAA"/></svg>