<svg width="105" height="33" fill="none" xmlns="http://www.w3.org/2000/svg"><path fill-rule="evenodd" clip-rule="evenodd" d="M13.218.529h.929c3.224.066 6.395 1.294 8.673 3.467-.841.813-1.7 1.593-2.523 2.406-1.279-1.095-2.82-1.941-4.503-2.24-2.488-.498-5.169-.05-7.254 1.294-2.278 1.41-3.82 3.8-4.153 6.355a8.893 8.893 0 002.12 7.134c1.665 1.908 4.206 3.103 6.834 3.186 2.453.133 5.011-.581 6.798-2.207 1.402-1.145 2.05-2.887 2.26-4.58-2.908 0-5.816.017-8.725 0v-3.417H25.92c.631 3.667-.28 7.798-3.223 10.42-1.963 1.858-4.679 2.953-7.447 3.168-2.68.25-5.45-.232-7.832-1.46-2.856-1.443-5.134-3.882-6.255-6.752-1.052-2.639-1.07-5.625-.088-8.28.894-2.422 2.61-4.562 4.818-6.055C8.014 1.49 10.59.678 13.218.528zm70.262.862h3.75v23.693c-1.245 0-2.506.016-3.75-.017.017-7.88 0-15.778 0-23.676zM34.262 9.604c2.313-.415 4.818.05 6.728 1.36 1.735 1.162 2.944 2.987 3.312 4.978.473 2.306-.123 4.828-1.7 6.653-1.7 2.04-4.485 3.136-7.201 2.97-2.488-.133-4.906-1.31-6.378-3.235-1.664-2.124-2.067-5.044-1.157-7.533.912-2.671 3.487-4.712 6.396-5.193zm.526 3.152c-.946.233-1.823.747-2.453 1.477-1.7 1.925-1.595 5.06.28 6.852 1.069 1.03 2.68 1.51 4.17 1.228a4.705 4.705 0 003.26-2.273c1.155-1.974.823-4.695-.947-6.238-1.139-.996-2.803-1.41-4.31-1.046zm18.046-3.152c2.646-.481 5.537.216 7.517 1.975 3.224 2.737 3.575 7.864.824 11.016-1.665 1.991-4.363 3.086-7.026 2.97-2.54-.066-5.047-1.26-6.553-3.235-1.7-2.174-2.068-5.16-1.104-7.699.963-2.588 3.487-4.562 6.343-5.027zm.526 3.153a4.833 4.833 0 00-2.453 1.46c-1.682 1.891-1.612 4.977.193 6.786 1.069 1.078 2.733 1.609 4.275 1.31 1.367-.249 2.593-1.111 3.26-2.273 1.138-1.99.805-4.712-.982-6.255-1.139-.995-2.803-1.393-4.293-1.028zm15.226-2.191c2.015-1.194 4.696-1.526 6.869-.497.683.282 1.244.763 1.787 1.244l.017-1.377 3.54.016v14.634c-.018 2.207-.613 4.546-2.296 6.156-1.84 1.775-4.66 2.322-7.2 1.957-2.717-.381-5.082-2.256-6.133-4.629 1.05-.48 2.155-.862 3.241-1.31.613 1.36 1.858 2.521 3.417 2.787 1.56.265 3.364-.1 4.38-1.327 1.086-1.261 1.086-2.987 1.034-4.53-.806.747-1.735 1.41-2.856 1.66-2.436.646-5.116-.15-6.991-1.71-1.892-1.56-3.014-3.965-2.909-6.354.053-2.705 1.665-5.31 4.1-6.72zm3.627 2.124a4.671 4.671 0 00-2.75 1.51c-1.648 1.858-1.648 4.828.017 6.653.946 1.079 2.47 1.676 3.942 1.526a4.467 4.467 0 003.347-2.107c1.156-1.94.964-4.579-.596-6.271-.964-1.045-2.505-1.56-3.96-1.31zm19.519-1.277c2.103-1.859 5.344-2.49 8.043-1.51 2.558.912 4.187 3.218 5.011 5.591-3.802 1.493-7.587 2.97-11.39 4.463.527.946 1.332 1.809 2.419 2.157 1.524.514 3.346.332 4.626-.63.508-.365.911-.847 1.296-1.311l2.891 1.825c-1.367 1.941-3.662 3.302-6.132 3.517-2.734.316-5.642-.68-7.412-2.704-2.909-3.186-2.628-8.528.648-11.398zm1.875 3.069c-.596.813-.84 1.808-.823 2.787 2.54-.995 5.08-1.99 7.621-3.003-.42-.929-1.436-1.493-2.47-1.642-1.665-.282-3.4.564-4.328 1.858z" fill="#A2BDAA"/></svg>