<svg width="106" height="33" fill="none" xmlns="http://www.w3.org/2000/svg"><g clip-path="url(#clip0_2_166)"><path d="M0 22.764V.474h3.915v22.29H0zm13.938-16.17c-5.02 0-8.494 3.86-8.494 8.278 0 4.93 3.78 8.327 8.533 8.327 4.512 0 8.427-3.334 8.427-8.338 0-4.208-3.245-8.267-8.466-8.267zm-.046 3.777c2.627 0 4.56 2.045 4.56 4.515a4.512 4.512 0 01-4.49 4.529c-2.785 0-4.539-2.208-4.539-4.522 0-2.536 1.98-4.522 4.469-4.522zm18.35-3.777c-5.02 0-8.495 3.86-8.495 8.278 0 4.93 3.78 8.327 8.533 8.327 4.512 0 8.427-3.334 8.427-8.338 0-2.947-1.276-4.254-1.276-4.254l1.085-.372V7.057h-5.561s-1.206-.463-2.714-.463zm-.047 3.777c2.627 0 4.56 2.045 4.56 4.515a4.512 4.512 0 01-4.49 4.529c-2.785 0-4.539-2.208-4.539-4.522 0-2.536 1.98-4.522 4.469-4.522zm4.533 13.483a4.524 4.524 0 01-4.49 4.543c-2.786 0-4.546-2.23-4.546-4.543h-3.973c0 4.93 3.78 8.327 8.533 8.327 4.512 0 8.427-3.323 8.427-8.327h-3.95zm5.547-1.09V7.057h3.916v15.707h-3.916zm7.717 0V10.576h-2.1v-3.52h2.1V2.234h3.916v4.823h2.156v3.518h-2.156v12.19h-3.916zM46.817 2.596a2.593 2.593 0 11-5.185 0 2.593 2.593 0 015.185 0zm18.05 3.987c-5.044 0-8.296 3.862-8.296 8.43 0 4.722 3.263 8.197 8.377 8.197 4.771 0 7.118-2.98 7.118-2.98l-2.617-2.62s-1.976 2.131-4.451 2.131c-2.063 0-3.712-1.151-4.288-3.263h12.2V15.4c0-4.302-2.49-8.817-8.043-8.817zm-.124 3.448c1.803 0 3.648.965 4.06 3.27h-8.2c.325-1.62 1.743-3.27 4.14-3.27zm17.96 13.18c-5.057 0-8.504-3.852-8.504-8.394 0-4.688 3.895-8.236 8.489-8.236 4.44 0 6.713 3.134 6.713 3.134l-2.731 2.72s-1.583-2.045-4.001-2.045c-2.68 0-4.513 2.05-4.513 4.487 0 2.573 1.95 4.548 4.483 4.548 2.457 0 4.027-2.041 4.027-2.041l2.758 2.718s-2.25 3.11-6.72 3.11zm8.146-.435V.418h3.915v8.214s1.5-2.051 4.76-2.051c4.101 0 6.476 3.047 6.476 6.945v9.25h-3.916v-8.658c0-2.619-1.63-3.705-3.436-3.705-2.058 0-3.884 1.17-3.884 3.907v8.456H90.85z" fill="#A2BDAA"/></g><defs><clipPath id="clip0_2_166"><path fill="#fff" d="M0 0h106v32.182H0z"/></clipPath></defs></svg>