<svg width="123" height="32" fill="none" xmlns="http://www.w3.org/2000/svg"><g clip-path="url(#clip0_2_147)" fill="#A2BDAA"><path fill-rule="evenodd" clip-rule="evenodd" d="M39.35 24.506l1.535-3.567c1.658 1.24 3.867 1.885 6.047 1.885 1.609 0 2.627-.62 2.627-1.56-.024-2.627-9.638-.57-9.712-7.158-.025-3.346 2.947-5.924 7.159-5.924 2.504 0 5.003.62 6.79 2.032l-1.437 3.64c-1.634-1.042-3.666-1.785-5.6-1.785-1.313 0-2.179.62-2.179 1.412.025 2.578 9.712 1.166 9.81 7.458 0 3.42-2.897 5.826-7.06 5.826-3.05-.005-5.85-.723-7.98-2.259zm58.947-4.855a4.455 4.455 0 01-3.867 2.253 4.427 4.427 0 01-4.433-4.433 4.43 4.43 0 014.433-4.433c1.657 0 3.1.915 3.867 2.253l4.236-2.351c-1.585-2.824-4.635-4.758-8.103-4.758-5.132 0-9.294 4.162-9.294 9.294 0 5.131 4.162 9.294 9.294 9.294a9.24 9.24 0 008.103-4.758l-4.236-2.361zM56.52.472h5.304v25.944H56.52V.472zm48.093 0v25.944h5.304v-7.784l6.292 7.784H123l-8.005-9.245 7.41-8.625h-6.495l-5.997 7.159V.472h-5.299z"/><path d="M77.584 19.7c-.768 1.264-2.352 2.204-4.138 2.204a4.427 4.427 0 01-4.433-4.433 4.43 4.43 0 014.433-4.433c1.786 0 3.37.989 4.138 2.278V19.7zm0-11.15v2.107c-.866-1.462-3.021-2.48-5.28-2.48-4.659 0-8.324 4.113-8.324 9.27 0 5.155 3.665 9.318 8.324 9.318 2.254 0 4.409-1.014 5.28-2.48v2.106h5.303V8.55h-5.303z"/><path fill-rule="evenodd" clip-rule="evenodd" d="M6.568 19.675a3.267 3.267 0 01-3.272 3.272 3.27 3.27 0 01-3.271-3.272 3.27 3.27 0 013.271-3.272h3.272v3.272zm1.634 0a3.267 3.267 0 013.271-3.272 3.267 3.267 0 013.272 3.272v8.177a3.267 3.267 0 01-3.271 3.272 3.267 3.267 0 01-3.272-3.272v-8.177zm3.271-13.131a3.267 3.267 0 01-3.271-3.272A3.267 3.267 0 0111.473 0a3.267 3.267 0 013.272 3.272v3.272h-3.272zm0 1.658a3.267 3.267 0 013.272 3.271 3.267 3.267 0 01-3.272 3.272H3.272A3.27 3.27 0 010 11.473a3.27 3.27 0 013.272-3.271h8.201zm13.107 3.271a3.267 3.267 0 013.272-3.271 3.267 3.267 0 013.272 3.271 3.267 3.267 0 01-3.272 3.272H24.58v-3.272zm-1.633 0a3.267 3.267 0 01-3.272 3.272 3.267 3.267 0 01-3.272-3.272V3.272A3.267 3.267 0 0119.675 0a3.267 3.267 0 013.272 3.272v8.201zM19.675 24.58a3.267 3.267 0 013.272 3.272 3.267 3.267 0 01-3.272 3.272 3.267 3.267 0 01-3.272-3.272V24.58h3.272zm0-1.633a3.267 3.267 0 01-3.272-3.272 3.267 3.267 0 013.272-3.272h8.202a3.267 3.267 0 013.271 3.272 3.267 3.267 0 01-3.271 3.272h-8.202z"/></g><defs><clipPath id="clip0_2_147"><path fill="#fff" d="M0 0h123v31.124H0z"/></clipPath></defs></svg>