<svg width="190" height="31" fill="none" xmlns="http://www.w3.org/2000/svg"><path d="M40.262 24a.602.602 0 01-.442-.182.634.634 0 01-.182-.468V11.13c0-.19.06-.347.182-.468a.602.602 0 01.442-.182h2.418a.6.6 0 01.442.182.593.593 0 01.208.468v.884c.347-.485.823-.901 1.43-1.248.624-.347 1.36-.529 2.21-.546 2.01-.035 3.389.728 4.134 2.288.399-.676.97-1.222 1.716-1.638a4.967 4.967 0 012.496-.65c.901 0 1.716.208 2.444.624.728.399 1.3 1.023 1.716 1.872.433.832.65 1.907.65 3.224v7.41c0 .19-.06.347-.182.468a.602.602 0 01-.442.182h-2.574a.602.602 0 01-.442-.182.634.634 0 01-.182-.468v-7.202c0-.71-.104-1.265-.312-1.664-.208-.416-.485-.71-.832-.884a2.364 2.364 0 00-1.118-.26c-.364 0-.72.087-1.066.26-.33.173-.607.468-.832.884-.208.399-.312.953-.312 1.664v7.202c0 .19-.06.347-.182.468a.634.634 0 01-.468.182h-2.548a.634.634 0 01-.468-.182.634.634 0 01-.182-.468v-7.202c0-.71-.104-1.265-.312-1.664-.208-.416-.485-.71-.832-.884a2.308 2.308 0 00-1.092-.26c-.364 0-.72.095-1.066.286-.347.173-.633.46-.858.858-.208.399-.312.945-.312 1.638v7.228c0 .19-.06.347-.182.468a.602.602 0 01-.442.182h-2.626zm27.513.26c-.919 0-1.742-.173-2.47-.52-.728-.364-1.309-.85-1.742-1.456a3.408 3.408 0 01-.65-2.028c0-1.23.494-2.201 1.482-2.912 1.005-.71 2.322-1.196 3.952-1.456l3.406-.494v-.468c0-.676-.156-1.196-.468-1.56-.312-.364-.858-.546-1.638-.546-.572 0-1.032.113-1.378.338-.347.225-.616.52-.806.884a.663.663 0 01-.598.338h-2.47c-.191 0-.338-.052-.442-.156a.525.525 0 01-.13-.416c0-.295.112-.641.338-1.04.225-.399.572-.789 1.04-1.17.468-.399 1.066-.728 1.794-.988s1.62-.39 2.678-.39c1.092 0 2.028.13 2.808.39.78.26 1.404.624 1.872 1.092a4.405 4.405 0 011.04 1.638 5.64 5.64 0 01.338 1.976v8.034c0 .19-.061.347-.182.468a.634.634 0 01-.468.182h-2.548a.602.602 0 01-.442-.182.633.633 0 01-.182-.468v-.962c-.226.33-.529.641-.91.936a4.879 4.879 0 01-1.378.676c-.52.173-1.136.26-1.846.26zm1.04-2.704c.572 0 1.083-.121 1.534-.364.45-.243.806-.615 1.066-1.118.26-.503.39-1.135.39-1.898v-.442l-2.418.39c-.936.156-1.621.39-2.054.702-.434.312-.65.693-.65 1.144 0 .33.095.615.286.858.208.243.476.425.806.546a2.99 2.99 0 001.04.182zM80.023 24a.602.602 0 01-.442-.182.634.634 0 01-.182-.468V11.13a.6.6 0 01.182-.442.566.566 0 01.442-.208h2.548c.173 0 .32.07.442.208a.566.566 0 01.208.442v1.04a4.457 4.457 0 011.586-1.248c.641-.295 1.378-.442 2.21-.442h1.118a.6.6 0 01.442.182.634.634 0 01.182.468v2.236c0 .19-.061.347-.182.468a.602.602 0 01-.442.182h-2.288c-.763 0-1.361.217-1.794.65-.434.416-.65 1.014-.65 1.794v6.89c0 .19-.061.347-.182.468a.634.634 0 01-.468.182h-2.73zm11.845 0a.634.634 0 01-.468-.182.634.634 0 01-.183-.468V6.19c0-.19.061-.347.183-.468a.634.634 0 01.468-.182h2.547c.174 0 .321.06.442.182a.633.633 0 01.183.468v8.788l4.003-4.056c.14-.121.26-.225.364-.312.122-.087.304-.13.547-.13h2.938c.173 0 .312.06.416.182a.53.53 0 01.156.39c0 .07-.018.147-.052.234a.427.427 0 01-.182.208l-5.019 5.044 5.669 6.474c.156.139.234.277.234.416a.574.574 0 01-.182.416.53.53 0 01-.39.156h-3.016c-.26 0-.451-.043-.572-.13a17.13 17.13 0 01-.364-.312l-4.55-5.096v4.888c0 .19-.061.347-.183.468a.602.602 0 01-.442.182h-2.547zm20.044.26c-1.993 0-3.579-.555-4.758-1.664-1.161-1.11-1.777-2.721-1.846-4.836v-1.118c.069-1.335.373-2.479.91-3.432A5.344 5.344 0 01108.48 11c.971-.52 2.106-.78 3.406-.78 1.456 0 2.669.303 3.64.91a5.485 5.485 0 012.21 2.444c.503 1.023.754 2.201.754 3.536v.598c0 .173-.069.32-.208.442a.602.602 0 01-.442.182h-8.502v.208c.017.555.121 1.066.312 1.534.208.45.494.815.858 1.092.381.277.832.416 1.352.416.433 0 .789-.06 1.066-.182.277-.121.503-.269.676-.442.191-.173.329-.32.416-.442.156-.173.277-.277.364-.312.104-.052.26-.078.468-.078h2.704c.173 0 .312.052.416.156.121.087.173.217.156.39-.017.277-.165.624-.442 1.04-.26.399-.65.797-1.17 1.196-.52.381-1.17.702-1.95.962-.763.26-1.647.39-2.652.39zm-2.574-8.294h5.096v-.052c0-.624-.104-1.161-.312-1.612a2.364 2.364 0 00-.858-1.092c-.381-.26-.841-.39-1.378-.39-.537 0-.997.13-1.378.39-.381.26-.676.624-.884 1.092-.191.45-.286.988-.286 1.612v.052zM128.058 24c-1.074 0-1.993-.173-2.756-.52a3.773 3.773 0 01-1.742-1.664c-.381-.745-.572-1.681-.572-2.808v-5.46h-2.028a.636.636 0 01-.468-.182.635.635 0 01-.182-.468V11.13c0-.19.061-.347.182-.468a.636.636 0 01.468-.182h2.028V6.19c0-.19.061-.347.182-.468a.694.694 0 01.468-.182h2.548a.63.63 0 01.468.182.63.63 0 01.182.468v4.29h3.25a.6.6 0 01.442.182.63.63 0 01.182.468v1.768a.63.63 0 01-.182.468.6.6 0 01-.442.182h-3.25v5.148c0 .659.113 1.179.338 1.56.243.364.659.546 1.248.546h1.898a.6.6 0 01.442.182.6.6 0 01.182.442v1.924a.63.63 0 01-.182.468.6.6 0 01-.442.182h-2.262zm6.325 0a.633.633 0 01-.468-.182.63.63 0 01-.182-.468V6.19c0-.19.06-.347.182-.468a.632.632 0 01.468-.182h2.808a.6.6 0 01.442.182.635.635 0 01.182.468v5.85a5.188 5.188 0 011.716-1.326c.676-.33 1.49-.494 2.444-.494 1.022 0 1.924.234 2.704.702.797.45 1.421 1.118 1.872 2.002.45.867.676 1.924.676 3.172v7.254c0 .19-.061.347-.182.468a.636.636 0 01-.468.182h-2.834a.6.6 0 01-.442-.182.63.63 0 01-.182-.468v-7.098c0-.919-.226-1.63-.676-2.132-.451-.52-1.092-.78-1.924-.78-.815 0-1.474.26-1.976.78-.486.503-.728 1.213-.728 2.132v7.098c0 .19-.061.347-.182.468a.603.603 0 01-.442.182h-2.808zm17.099 0a.602.602 0 01-.442-.182.635.635 0 01-.182-.468V11.13c0-.19.061-.347.182-.468a.602.602 0 01.442-.182h2.6a.63.63 0 01.468.182.635.635 0 01.182.468v12.22c0 .19-.061.347-.182.468a.633.633 0 01-.468.182h-2.6zm-.078-15.6a.602.602 0 01-.442-.182.635.635 0 01-.182-.468V5.67c0-.19.061-.347.182-.468a.566.566 0 01.442-.208h2.73c.191 0 .347.07.468.208a.592.592 0 01.208.468v2.08c0 .19-.069.347-.208.468a.632.632 0 01-.468.182h-2.73zm8.393 15.6a.602.602 0 01-.442-.182.635.635 0 01-.182-.468V11.13c0-.19.061-.347.182-.468a.602.602 0 01.442-.182h2.548a.63.63 0 01.468.182.635.635 0 01.182.468v1.014c.451-.555 1.031-1.014 1.742-1.378.711-.364 1.577-.546 2.6-.546 1.023 0 1.915.234 2.678.702.78.45 1.387 1.118 1.82 2.002.451.867.676 1.924.676 3.172v7.254c0 .19-.069.347-.208.468a.602.602 0 01-.442.182h-2.756a.633.633 0 01-.468-.182.635.635 0 01-.182-.468v-7.098c0-.919-.225-1.63-.676-2.132-.433-.52-1.075-.78-1.924-.78-.815 0-1.465.26-1.95.78-.485.503-.728 1.213-.728 2.132v7.098c0 .19-.061.347-.182.468a.602.602 0 01-.442.182h-2.756zm16.999 0a.633.633 0 01-.468-.182.635.635 0 01-.182-.468V6.19c0-.19.061-.347.182-.468a.632.632 0 01.468-.182h2.548a.6.6 0 01.442.182.635.635 0 01.182.468v8.788l4.004-4.056c.139-.121.26-.225.364-.312.121-.087.303-.13.546-.13h2.938c.173 0 .312.06.416.182a.53.53 0 01.156.39.63.63 0 01-.052.234.422.422 0 01-.182.208l-5.018 5.044 5.668 6.474c.156.139.234.277.234.416a.574.574 0 01-.182.416.53.53 0 01-.39.156h-3.016c-.26 0-.451-.043-.572-.13-.104-.087-.225-.19-.364-.312l-4.55-5.096v4.888c0 .19-.061.347-.182.468a.602.602 0 01-.442.182h-2.548z" fill="#fff"/><path d="M21.25 28.5a6.25 6.25 0 100-12.5 6.25 6.25 0 000 12.5z" fill="#EDFF81"/><path d="M23.125 12.25a4.375 4.375 0 100-8.75 4.375 4.375 0 000 8.75zM6.913 28.462a4.375 4.375 0 100-8.75 4.375 4.375 0 000 8.75z" fill="#fff"/><path d="M8.75 16a6.25 6.25 0 100-12.5 6.25 6.25 0 000 12.5z" fill="#EDFF81"/></svg>