<svg width="475" height="10" fill="none" xmlns="http://www.w3.org/2000/svg"><path opacity=".5" d="M473.658.06a1 1 0 11.684 1.88l-.684-1.88zm-12.383 5.573l.342.94-.342-.94zm-47.205-.586l-.329-.945.329.945zm-5.434 1.892l-.329-.944.329.944zm-33.867-2.878l.329.944-.329-.944zm-9.165 3.192l-.329-.945.329.945zm-31.537-2.478l.406.913-.406-.913zm-40.486.517l.406.914-.406-.914zm-.467.208l-.407-.914.407.914zm-46.166 1.536l.335.942-.335-.942zm-33.54-2.048l.407.913-.407-.913zm-23.528-.321l.398-.918-.398.918zm-33.685 1.237l-.427.904.427-.904zm-36.897.117l-.408.913.408-.913zm-56.16-.636l-.442-.897.443.897zm-18.384-.006l-.455.89.455-.89zM1.439.1l9.998 4.88-.877 1.797-9.999-4.88L1.44.102zm43.77 4.388l.424.216-.91 1.781-.424-.217.91-1.78zm16.81.333l.677-.334.885 1.793-.676.334-.886-1.793zm19.416-.58l1.898.876-.838 1.816-1.898-.876.838-1.816zM117 3.898l2.706 1.21-.816 1.826-2.706-1.21.816-1.826zm38.28.468l1.342.633-.854 1.81-1.341-.634.853-1.809zm34.998-.617l2.822 1.223-.795 1.835-2.822-1.223.795-1.835zm20.948 1.119L213 4.075l.815 1.826-1.773.793-.816-1.826zm35.386 1.226l7.531-2.68.671 1.883-7.531 2.681-.671-1.884zm46.095-1.508l.467-.207.813 1.827-.466.208-.814-1.828zm38.713.272l2.24-.997.813 1.827-2.24.997-.813-1.827zm33.855 1.45l9.165-3.192.658 1.89-9.165 3.191-.658-1.889zm43.032-.313l5.434-1.893.658 1.89-5.434 1.892-.658-1.89zm52.626-1.301L473.658.06l.684 1.88-12.725 4.633-.684-1.88zm-23.307-.21c7.469 2.848 15.801 2.943 23.307.21l.684 1.879c-7.963 2.9-16.791 2.797-24.704-.221l.713-1.869zm-23.885-.382c7.729-2.692 16.243-2.534 23.885.381l-.713 1.869c-7.207-2.75-15.235-2.896-22.514-.36l-.658-1.89zm-21.555.523a19.842 19.842 0 0016.121 1.37l.658 1.889a21.842 21.842 0 01-17.746-1.509l.967-1.75zM374.44 3.116a21.842 21.842 0 0117.746 1.509l-.967 1.75a19.842 19.842 0 00-16.121-1.37l-.658-1.889zm-23.397 1.762a16.959 16.959 0 0014.232 1.43l.658 1.89a18.958 18.958 0 01-15.91-1.6l1.02-1.72zM333.66 3.86a18.959 18.959 0 0117.383 1.017l-1.02 1.72a16.96 16.96 0 00-15.55-.91l-.813-1.827zm-20.386.768c5.713 2.692 12.382 2.794 18.146.23l.813 1.826c-6.302 2.805-13.579 2.69-19.812-.246l.853-1.81zm-20.1-.25c6.393-2.845 13.776-2.73 20.1.25l-.853 1.81c-5.804-2.735-12.579-2.839-18.434-.233l-.813-1.827zm-19.777-.01a23.207 23.207 0 0019.31.217l.814 1.828a25.21 25.21 0 01-20.977-.237l.853-1.809zm-19.254-.956a25.302 25.302 0 0119.254.955l-.853 1.81a23.3 23.3 0 00-17.73-.88l-.671-1.885zm-22.77 1.439a18.607 18.607 0 0015.239 1.242l.671 1.884a20.607 20.607 0 01-16.877-1.376l.967-1.75zM213 4.075a20.608 20.608 0 0118.373.777l-.967 1.75a18.61 18.61 0 00-16.591-.7L213 4.074zm-19.9.897a22.503 22.503 0 0018.126-.104l.816 1.826a24.503 24.503 0 01-19.737.113l.795-1.835zm-20.265-.44a19.923 19.923 0 0117.443-.783l-.795 1.835a17.923 17.923 0 00-15.692.704l-.956-1.756zm-16.213.467a17.921 17.921 0 0016.213-.467l.956 1.756a19.923 19.923 0 01-18.023.52L156.622 5zm-20.191-.33a21.37 21.37 0 0118.849-.303l-.853 1.81a19.373 19.373 0 00-17.086.273l-.91-1.78zm-16.725.439a19.373 19.373 0 0016.725-.44l.91 1.781a21.371 21.371 0 01-18.451.485l.816-1.826zm-20.328-.52A19.889 19.889 0 01117 3.898l-.816 1.826a17.888 17.888 0 00-15.849.62l-.956-1.756zm-16.045.53a17.888 17.888 0 0016.046-.53l.956 1.756a19.889 19.889 0 01-17.84.59l.838-1.816zm-20.637-.63a21.749 21.749 0 0118.74-.246l-.839 1.816a19.749 19.749 0 00-17.016.224l-.885-1.794zm-17.063.217a18.247 18.247 0 0016.386.117l.886 1.793a20.247 20.247 0 01-18.182-.129l.91-1.78zM27.25 4.671a19.34 19.34 0 0117.96-.182l-.91 1.78a17.339 17.339 0 00-16.104.164L27.25 4.67zm-15.811.31a17.34 17.34 0 0015.81-.31l.947 1.762a19.34 19.34 0 01-17.635.345l.877-1.798z" fill="#C9F87C"/></svg>