<svg width="198" height="32" fill="none" xmlns="http://www.w3.org/2000/svg"><path d="M42.3 24.165a.727.727 0 01-.491-.192.666.666 0 01-.192-.491V10.643c0-.2.064-.364.192-.492a.727.727 0 01.491-.19h2.54c.201 0 .365.063.492.19a.666.666 0 01.192.492v.929c.382-.51.892-.947 1.53-1.311.655-.365 1.429-.556 2.321-.574 2.095-.037 3.542.765 4.344 2.404.419-.71 1.02-1.284 1.803-1.721a5.07 5.07 0 012.595-.683c.947 0 1.802.218 2.567.655.765.42 1.375 1.075 1.83 1.967.456.874.683 2.004.683 3.388v7.785a.62.62 0 01-.218.491.632.632 0 01-.465.192H59.81a.665.665 0 01-.492-.192.666.666 0 01-.19-.491v-7.567c0-.747-.11-1.33-.328-1.748-.2-.42-.483-.72-.847-.902-.346-.2-.738-.3-1.175-.3-.382 0-.756.1-1.12.3-.346.182-.637.483-.874.902-.219.419-.328 1.001-.328 1.748v7.567c0 .2-.064.364-.191.491a.632.632 0 01-.464.192h-2.705a.666.666 0 01-.491-.192.666.666 0 01-.192-.491v-7.567c0-.747-.109-1.33-.327-1.748-.219-.42-.51-.72-.875-.902a2.298 2.298 0 00-2.267 0c-.346.182-.637.483-.874.902-.218.419-.328.992-.328 1.72v7.595c0 .2-.063.364-.191.491a.666.666 0 01-.492.192H42.3zm28.906.273c-.965 0-1.83-.182-2.595-.547-.765-.382-1.375-.892-1.83-1.53a3.58 3.58 0 01-.683-2.13c0-1.293.519-2.313 1.557-3.06 1.056-.746 2.44-1.256 4.152-1.53l3.578-.518v-.492c0-.71-.163-1.256-.491-1.639-.328-.382-.902-.574-1.721-.574-.601 0-1.084.119-1.448.356-.346.236-.62.546-.82.928-.145.237-.364.355-.655.355h-2.595c-.2 0-.355-.054-.465-.163a.552.552 0 01-.136-.437c0-.31.118-.674.355-1.093.237-.419.601-.829 1.093-1.23.491-.418 1.12-.764 1.885-1.037.783-.274 1.72-.41 2.813-.41 1.147 0 2.13.136 2.95.41.82.273 1.475.655 1.967 1.147a4.22 4.22 0 011.093 1.72c.237.638.355 1.33.355 2.077v8.44a.666.666 0 01-.191.492.632.632 0 01-.465.192h-2.704a.632.632 0 01-.465-.192.666.666 0 01-.19-.491V22.47a4.405 4.405 0 01-.957.983c-.4.292-.883.529-1.448.71-.546.183-1.192.274-1.939.274zm1.093-2.841c.6 0 1.138-.128 1.611-.383.474-.255.847-.646 1.12-1.174.273-.528.41-1.193.41-1.994v-.465l-2.54.41c-.966.164-1.676.41-2.131.738-.455.327-.683.728-.683 1.201 0 .347.1.647.3.902.22.237.492.428.82.574.346.127.71.19 1.093.19zm11.775 2.568a.727.727 0 01-.492-.192.666.666 0 01-.19-.491V10.643c0-.182.063-.337.19-.464a.68.68 0 01.492-.219h2.677c.2 0 .364.073.492.219a.632.632 0 01.191.464v1.093a4.623 4.623 0 011.694-1.312c.674-.31 1.438-.464 2.294-.464h1.175c.2 0 .364.064.492.191a.665.665 0 01.19.492v2.377a.632.632 0 01-.19.464.666.666 0 01-.492.191H90.22c-.82 0-1.457.228-1.912.683-.437.455-.655 1.083-.655 1.885v7.239c0 .2-.073.364-.219.491a.632.632 0 01-.464.192h-2.896zm12.471 0a.666.666 0 01-.491-.192.666.666 0 01-.192-.491V5.452c0-.2.064-.363.192-.49a.666.666 0 01.491-.192h2.677c.183 0 .337.064.465.191a.623.623 0 01.218.492v9.233l4.18-4.262c.145-.127.273-.236.382-.327.128-.091.319-.137.574-.137h3.114c.164 0 .3.064.41.191a.52.52 0 01.191.41.66.66 0 01-.055.246.442.442 0 01-.191.218l-5.272 5.3 5.955 6.802c.146.145.218.29.218.437 0 .163-.054.31-.163.437a.593.593 0 01-.438.164h-3.168c-.273 0-.474-.046-.601-.137-.109-.091-.237-.2-.383-.328l-4.753-5.354v5.136c0 .2-.073.364-.218.491a.632.632 0 01-.465.192h-2.677zm21.06.273c-2.094 0-3.761-.583-4.999-1.748-1.22-1.166-1.867-2.86-1.939-5.081v-1.148c.072-1.42.391-2.631.956-3.633a5.613 5.613 0 012.376-2.322c1.02-.546 2.213-.82 3.579-.82 1.547 0 2.831.32 3.851.957a5.812 5.812 0 012.295 2.568c.528 1.074.792 2.313.792 3.715v.628a.73.73 0 01-.191.492.668.668 0 01-.492.19h-8.905v.193a4.6 4.6 0 00.328 1.61c.2.474.491.857.874 1.148.4.291.883.437 1.448.437.437 0 .801-.064 1.092-.191a3.178 3.178 0 001.148-.929c.163-.2.291-.319.382-.355.109-.055.264-.082.464-.082h2.896c.164 0 .3.055.41.164a.45.45 0 01.164.41c-.019.31-.173.683-.465 1.12-.273.419-.683.838-1.229 1.256-.546.4-1.229.738-2.049 1.011-.801.273-1.73.41-2.786.41zm-2.677-8.714h5.327v-.082c0-.637-.11-1.193-.328-1.666-.201-.492-.501-.875-.902-1.148-.4-.273-.883-.41-1.447-.41-.565 0-1.048.137-1.448.41-.383.273-.683.656-.902 1.148-.2.473-.3 1.028-.3 1.666v.082zm19.667 8.441c-1.129 0-2.094-.182-2.895-.547a3.988 3.988 0 01-1.803-1.748c-.419-.783-.628-1.766-.628-2.95v-5.737h-2.131a.668.668 0 01-.492-.19.634.634 0 01-.191-.465v-1.885c0-.2.064-.364.191-.492a.668.668 0 01.492-.19h2.131V5.452c0-.2.063-.364.191-.492a.725.725 0 01.491-.191h2.705a.63.63 0 01.464.191.663.663 0 01.191.492V9.96h3.415c.2 0 .364.064.492.191a.667.667 0 01.191.492v1.885a.634.634 0 01-.191.464.668.668 0 01-.492.191h-3.415v5.409c0 .692.128 1.238.383 1.639.255.382.683.574 1.284.574h1.994c.2 0 .364.063.491.19a.631.631 0 01.192.465v2.022c0 .2-.064.364-.192.491a.664.664 0 01-.491.192h-2.377zm6.645 0a.666.666 0 01-.492-.192.667.667 0 01-.191-.491V5.452c0-.2.064-.363.191-.49a.666.666 0 01.492-.192h2.95c.2 0 .364.064.492.191a.667.667 0 01.191.492v6.146a5.165 5.165 0 011.775-1.393c.729-.346 1.594-.52 2.595-.52 1.075 0 2.022.247 2.841.738.838.474 1.485 1.175 1.94 2.104.473.91.71 2.021.71 3.332v7.622c0 .2-.064.364-.191.491a.666.666 0 01-.492.192h-2.977a.635.635 0 01-.465-.192.667.667 0 01-.191-.491v-7.458c0-.965-.237-1.712-.71-2.24-.474-.546-1.147-.82-2.022-.82-.855 0-1.538.274-2.048.82-.51.528-.765 1.275-.765 2.24v7.458c0 .2-.064.364-.191.491a.668.668 0 01-.492.192h-2.95zm17.965 0a.729.729 0 01-.492-.192.667.667 0 01-.191-.491V10.643c0-.2.064-.364.191-.492a.729.729 0 01.492-.19h2.759a.63.63 0 01.464.19.664.664 0 01.192.492v12.839c0 .2-.064.364-.192.491a.63.63 0 01-.464.192h-2.759zm-.082-16.39a.63.63 0 01-.464-.191.664.664 0 01-.192-.492V4.879a.63.63 0 01.192-.464.594.594 0 01.464-.219h2.896c.182 0 .337.073.464.219a.595.595 0 01.219.464v2.213c0 .2-.073.364-.219.492a.63.63 0 01-.464.19h-2.896zm8.151 16.39a.729.729 0 01-.492-.192.667.667 0 01-.191-.491V10.643c0-.2.064-.364.191-.492a.729.729 0 01.492-.19h2.677c.2 0 .364.063.492.19a.667.667 0 01.191.492v1.065c.473-.582 1.084-1.065 1.83-1.447.765-.383 1.676-.574 2.732-.574 1.074 0 2.021.246 2.841.737.819.474 1.457 1.175 1.912 2.104.455.91.683 2.021.683 3.332v7.622c0 .2-.064.364-.191.491a.668.668 0 01-.492.192h-2.896a.664.664 0 01-.491-.192.664.664 0 01-.192-.491v-7.458c0-.965-.236-1.712-.71-2.24-.455-.546-1.129-.82-2.021-.82-.856 0-1.539.274-2.049.82-.492.528-.738 1.275-.738 2.24v7.458c0 .2-.063.364-.191.491a.664.664 0 01-.491.192h-2.896zm17.86 0a.668.668 0 01-.492-.192.667.667 0 01-.191-.491V5.452c0-.2.064-.363.191-.49a.668.668 0 01.492-.192h2.677a.63.63 0 01.464.191.623.623 0 01.219.492v9.233l4.179-4.262a20.2 20.2 0 01.383-.327c.127-.091.318-.137.573-.137h3.114c.164 0 .301.064.41.191.128.11.191.246.191.41a.678.678 0 01-.054.246.449.449 0 01-.192.218l-5.272 5.3 5.955 6.802c.146.145.219.29.219.437 0 .163-.055.31-.164.437a.59.59 0 01-.437.164h-3.169c-.273 0-.473-.046-.601-.137-.109-.091-.236-.2-.382-.328l-4.753-5.354v5.136c0 .2-.073.364-.219.491a.63.63 0 01-.464.192h-2.677z" fill="#253D32"/><path d="M22.326 28.892a6.566 6.566 0 100-13.133 6.566 6.566 0 000 13.133z" fill="#EDFF81"/><path d="M24.296 11.82a4.597 4.597 0 100-9.194 4.597 4.597 0 000 9.194zM7.263 28.853a4.596 4.596 0 100-9.193 4.596 4.596 0 000 9.193z" fill="#253D32"/><path d="M9.193 15.76a6.566 6.566 0 100-13.134 6.566 6.566 0 000 13.133z" fill="#EDFF81"/></svg>