<svg width="402" height="491" fill="none" xmlns="http://www.w3.org/2000/svg"><path d="M401.805 315.534v148.811L295.513 491l-11.81-75.211 11.81-75.21 51.571-22.263 54.721-2.782z" fill="#5EBA3F"/><path d="M295.513 23.693V317.78l-39.633 22.35-54.849 7.088-11.81-231.622 11.81-67.845 47.241-23.693 47.241-.365z" fill="#5374E9"/><path d="M201.032 47.75v280.2l-47.24-5.379-47.241-24.058V23.693l47.241.365 47.24 23.693z" fill="#6C8DFF"/><path fill-rule="evenodd" clip-rule="evenodd" d="M224.891 41.675l70.621-17.982L201.032 0h-.001l-94.48 23.693 23.557 5.998 70.923 18.06h.001l23.859-6.076z" fill="#7CAEF8"/><path d="M295.513 340.579V491l-94.482-23.693-11.81-74.495 11.81-74.495 51.571 2.519 42.911 19.743z" fill="#6BCD49"/><path fill-rule="evenodd" clip-rule="evenodd" d="M295.513 288.881v-.002l-44.07 13.731-50.411 15.706 62.602 14.752 31.879 7.511v.001l106.292-25.045-106.292-26.655v.001z" fill="#C9F87C"/><path d="M106.551 340.579l-11.81 75.21 11.81 75.21 94.481-23.693v-148.99l-47.24 1.729-47.241 20.534z" fill="#F39321"/><path d="M.26 315.534v148.811L106.55 491V340.579l-53.145-22.263L.26 315.534z" fill="#F3A141"/><path fill-rule="evenodd" clip-rule="evenodd" d="M106.551 288.879c.36.113.044.014 0 0l47.066 14.665 35.629 11.101 11.786 3.672-47.24 11.131-47.241 11.131C93.598 337.528 13.186 318.58.26 315.534l106.29-26.654v-.001l-.005-.001.005.001zm0 0z" fill="#F8C67C"/></svg>