<svg width="30" height="30" fill="none" xmlns="http://www.w3.org/2000/svg"><g id="Iconly/Light-Outline/Show"><g id="Show"><path id="Fill 1" fill-rule="evenodd" clip-rule="evenodd" d="M15 12.052a3.017 3.017 0 00-3.014 3.014A3.016 3.016 0 0015 18.08a3.017 3.017 0 003.015-3.013A3.018 3.018 0 0015 12.053m0 7.902a4.893 4.893 0 01-4.89-4.888 4.895 4.895 0 014.89-4.89 4.896 4.896 0 014.89 4.89A4.894 4.894 0 0115 19.954" fill="#A3B938"/><g id="Group 5"><mask id="mask0_21_1261" style="mask-type:alpha" maskUnits="userSpaceOnUse" x="2" y="5" width="26" height="21"><path id="Clip 4" fill-rule="evenodd" clip-rule="evenodd" d="M2.5 5h25v20.131h-25V5.001z" fill="#fff"/></mask><g mask="url(#mask0_21_1261)"><path id="Fill 3" fill-rule="evenodd" clip-rule="evenodd" d="M4.462 15.066c2.325 5.136 6.242 8.19 10.538 8.19s8.212-3.054 10.537-8.19C23.212 9.93 19.297 6.876 15 6.876c-4.295 0-8.213 3.055-10.538 8.19zm10.54 10.066h-.005c-5.17-.004-9.813-3.628-12.42-9.696a.94.94 0 010-.74C5.183 8.628 9.826 5.004 14.996 5c.002-.002.002-.002.003 0 .002-.002.002-.002.004 0 5.17.003 9.812 3.627 12.42 9.695a.929.929 0 010 .74c-2.607 6.068-7.25 9.692-12.42 9.696h-.002z" fill="#A3B938"/></g></g></g></g></svg>